<svg xmlns="http://www.w3.org/2000/svg" xmlns:xlink="http://www.w3.org/1999/xlink" width="24" height="24" viewBox="0 0 24 24" fill="none">
<path d="M2 6.5L2 5.5C2 3.5672 3.5673 2 5.5 2C7.4327 2 9 3.5672 9 5.5L9 6.5C9 8.4328 7.4327 10 5.5 10C3.5673 10 2 8.4328 2 6.5ZM14.5002 9C12.5675 9 11 7.4327 11 5.5C11 3.5673 12.5675 2 14.5002 2L18.4998 2C20.4325 2 22 3.5673 22 5.5C22 7.4327 20.4325 9 18.4998 9L14.5002 9ZM4 6.5L4 5.5C4 4.6716 4.6717 4 5.5 4C6.3283 4 7 4.6716 7 5.5L7 6.5C7 7.3284 6.3283 8 5.5 8C4.6717 8 4 7.3284 4 6.5ZM14.5001 7C13.6713 7 13 6.3283 13 5.5C13 4.6717 13.6713 4 14.5001 4L18.4999 4C19.3287 4 20 4.6717 20 5.5C20 6.3283 19.3287 7 18.4999 7L14.5001 7ZM13 18.0004L13 14.9996C13 12.7908 14.791 11 16.9996 11L18.0004 11C20.209 11 22 12.7908 22 14.9996L22 18.0004C22 20.2092 20.209 22 18.0004 22L16.9996 22C14.791 22 13 20.2092 13 18.0004ZM2 18L2 16C2 13.791 3.791 12 5.9996 12L7.0004 12C9.209 12 11 13.791 11 16L11 18C11 20.209 9.209 22 7.0004 22L5.9996 22C3.791 22 2 20.209 2 18ZM15 18.0001L15 14.9999C15 13.8953 15.8955 13 17 13L18 13C19.1045 13 20 13.8953 20 14.9999L20 18.0001C20 19.1047 19.1045 20 18 20L17 20C15.8955 20 15 19.1047 15 18.0001ZM4 18.0002L4 15.9998C4 14.8952 4.8955 14 6 14L7 14C8.1045 14 9 14.8952 9 15.9998L9 18.0002C9 19.1048 8.1045 20 7 20L6 20C4.8955 20 4 19.1048 4 18.0002Z" fill-rule="evenodd"  fill="#92929D" >
</path>
</svg>
