<?xml version="1.0" standalone="no"?><!DOCTYPE svg PUBLIC "-//W3C//DTD SVG 1.1//EN" "http://www.w3.org/Graphics/SVG/1.1/DTD/svg11.dtd"><svg t="1740643415569" class="icon" viewBox="0 0 1104 1024" version="1.1" xmlns="http://www.w3.org/2000/svg" p-id="11715" xmlns:xlink="http://www.w3.org/1999/xlink" width="69" height="64"><path d="M900.367454 593.973753c59.128609 0 110.194226 48.377953 110.194226 110.194226 0 29.564304-10.750656 56.440945-32.251969 77.942257 75.254593 32.251969 123.632546 107.506562 123.632546 190.824147 0 8.062992-2.687664 24.188976-5.375328 48.377953h-86.005249c2.687664-24.188976 5.375328-40.314961 5.375328-48.377953 0-53.753281-16.125984-104.818898-43.002625-145.133858-16.125984-24.188976-37.627297-48.377953-61.816273-64.503937 8.062992-18.813648 10.750656-37.627297 10.750656-59.128609 0-40.314961-16.125984-80.629921-40.31496-107.506562 8.062992-2.687664 13.43832-2.687664 18.813648-2.687664z" fill="#515151" opacity=".65" p-id="11716"></path><path d="M806.299213 174.698163h-201.574804c-21.501312 0-32.251969 10.750656-32.251968 32.251968 0 21.501312 10.750656 32.251969 32.251968 32.251969H806.299213c21.501312 0 32.251969-10.750656 32.251968-32.251969 0-21.501312-10.750656-32.251969-32.251968-32.251968zM325.207349 174.698163c-2.687664 0-2.687664 0 0 0-18.813648 2.687664-32.251969 18.813648-29.564304 34.939632 2.687664 16.125984 18.813648 29.564304 34.939632 26.876641 18.813648-2.687664 29.564304-16.125984 29.564305-34.939633s-18.813648-29.564304-34.939633-26.87664zM838.551181 473.028871c0-21.501312-10.750656-32.251969-32.251968-32.251968h-201.574804c-21.501312 0-32.251969 10.750656-32.251968 32.251968 0 21.501312 10.750656 32.251969 32.251968 32.251969H806.299213c21.501312 0 32.251969-10.750656 32.251968-32.251969zM209.637795 174.698163c-18.813648 2.687664-29.564304 18.813648-26.87664 34.939632 2.687664 16.125984 18.813648 29.564304 34.939632 26.876641 18.813648-2.687664 29.564304-16.125984 29.564305-34.939633s-18.813648-29.564304-37.627297-26.87664zM322.519685 440.776903c-16.125984 2.687664-29.564304 18.813648-26.87664 34.939632 2.687664 16.125984 18.813648 29.564304 34.939632 26.876641 18.813648-2.687664 29.564304-16.125984 29.564305-34.939633s-18.813648-26.87664-37.627297-26.87664z" fill="#515151" p-id="11717"></path><path d="M545.595801 841.238845H102.131234c-2.687664 0-5.375328-2.687664-5.375328-5.375328v-198.887139H618.16273c8.062992-16.125984 18.813648-29.564304 29.564304-43.002625 16.125984-16.125984 37.627297-29.564304 59.128609-37.627296H96.755906v-185.448819h825.11286v180.073491c34.939633 5.375328 67.191601 21.501312 91.380578 45.690288l5.375328 5.375328V69.879265c0-37.627297-32.251969-69.879265-69.879265-69.879265H69.879265C32.251969 0 0 32.251969 0 69.879265v795.548557c0 45.690289 32.251969 80.629921 75.254593 80.629921H510.656168c2.687664-37.627297 16.125984-72.566929 34.939633-104.818898zM96.755906 110.194226c0-2.687664 2.687664-5.375328 5.375328-5.375328H913.805774c2.687664 0 5.375328 2.687664 5.375328 5.375328v198.887139H96.755906V110.194226z" fill="#515151" p-id="11718"></path><path d="M244.577428 736.419948c-2.687664-16.125984-18.813648-29.564304-34.939633-26.876641-16.125984 2.687664-29.564304 18.813648-26.87664 34.939633 2.687664 16.125984 18.813648 29.564304 34.939632 26.87664 16.125984-2.687664 29.564304-18.813648 26.876641-34.939632zM322.519685 709.543307c-16.125984 2.687664-29.564304 18.813648-26.87664 34.939633 2.687664 16.125984 18.813648 29.564304 34.939632 26.87664 18.813648-2.687664 29.564304-18.813648 26.876641-34.939632-2.687664-16.125984-16.125984-26.87664-32.251969-26.876641H322.519685zM209.637795 440.776903c-16.125984 2.687664-29.564304 18.813648-26.87664 34.939632 2.687664 16.125984 18.813648 29.564304 34.939632 26.876641 18.813648-2.687664 29.564304-16.125984 29.564305-34.939633s-18.813648-26.87664-37.627297-26.87664zM865.427822 704.167979c0-61.816273-48.377953-110.194226-110.194226-110.194226-59.128609 0-110.194226 48.377953-110.194226 110.194226 0 29.564304 10.750656 56.440945 32.251969 77.942257-75.254593 32.251969-123.632546 107.506562-123.632546 190.824147 0 8.062992 2.687664 24.188976 5.375328 48.377953h395.086614c2.687664-24.188976 5.375328-40.314961 5.375328-48.377953 0-83.317585-48.377953-158.572178-123.632546-190.824147 18.813648-18.813648 29.564304-48.377953 29.564305-77.942257z" fill="#515151" p-id="11719"></path></svg>