<?xml version="1.0" standalone="no"?><!DOCTYPE svg PUBLIC "-//W3C//DTD SVG 1.1//EN" "http://www.w3.org/Graphics/SVG/1.1/DTD/svg11.dtd"><svg t="1751955690793" class="icon" viewBox="0 0 1024 1024" version="1.1" xmlns="http://www.w3.org/2000/svg" p-id="5021" xmlns:xlink="http://www.w3.org/1999/xlink" width="48" height="48"><path d="M150.36 150.371V78.045c0-39.938 32.387-72.326 72.333-72.326h723.265c39.945 0 72.319 32.387 72.319 72.326v723.251c0 39.945-32.373 72.326-72.319 72.326h-72.333v72.333c0 39.946-32.38 72.326-72.326 72.326H78.042c-39.946 0-72.319-32.38-72.319-72.326V222.704c0-39.953 32.373-72.333 72.319-72.333h72.318z m0 72.333H78.042v723.251H801.3v-72.333H222.693c-39.946 0-72.333-32.38-72.333-72.326V222.704z m488.206 427.077v43.027c0 19.976-16.194 36.17-36.17 36.17h-36.148c-19.984 0-36.177-16.194-36.177-36.17v-43.027a215.9 215.9 0 0 1-56.906-23.723l-30.608 30.225c-14.19 14.046-37.089 13.915-51.12-0.282l-25.459-25.676c-14.053-14.205-13.923-37.089 0.282-51.134l30.521-30.305a215.469 215.469 0 0 1-22.558-54.968h-43.048c-19.962 0-36.156-16.186-36.156-36.17v-36.163c0-19.969 16.194-36.148 36.156-36.148h43.048c5.207-20.258 13.228-39.432 23.716-56.928l-30.232-30.587c-14.031-14.212-13.901-37.103 0.282-51.142l25.69-25.451c14.198-14.046 37.081-13.915 51.127 0.282l30.305 30.521c16.997-9.909 35.432-17.575 54.96-22.566v-43.034c0-19.969 16.194-36.163 36.177-36.163h36.148c19.976 0 36.17 16.194 36.17 36.163v43.034c20.251 5.207 39.41 13.228 56.913 23.723l30.608-30.232c14.19-14.038 37.081-13.908 51.134 0.289l25.444 25.676c14.046 14.198 13.915 37.089-0.282 51.134l-30.514 30.305c9.901 16.997 17.568 35.44 22.551 54.975h43.041c19.969 0 36.163 16.179 36.163 36.148v36.163c0 19.984-16.194 36.17-36.163 36.17H794.42c-5.207 20.251-13.228 39.41-23.716 56.92l30.232 30.587c14.046 14.212 13.901 37.096-0.289 51.142l-25.683 25.459c-14.19 14.038-37.089 13.908-51.134-0.289l-30.297-30.521c-17.003 9.909-35.439 17.575-54.967 22.566zM481.468 541.372v0.065c26.341 26.471 62.714 42.889 102.862 42.889 39.62 0 75.566-15.912 101.683-41.804h0.072c26.478-26.327 42.882-62.706 42.882-102.854 0-39.627-15.904-75.58-41.79-101.69v-0.065a144.217 144.217 0 0 0-102.847-42.882c-39.642 0-75.588 15.904-101.697 41.804h-0.072a144.195 144.195 0 0 0-42.889 102.833c-0.001 39.641 15.91 75.579 41.796 101.704zM222.693 78.045v723.251h723.265V78.045H222.693z m0 0" fill="#515151" p-id="5022"></path></svg>