<?xml version="1.0" standalone="no"?><!DOCTYPE svg PUBLIC "-//W3C//DTD SVG 1.1//EN" "http://www.w3.org/Graphics/SVG/1.1/DTD/svg11.dtd"><svg t="1744178117040" class="icon" viewBox="0 0 1024 1024" version="1.1" xmlns="http://www.w3.org/2000/svg" p-id="33697" xmlns:xlink="http://www.w3.org/1999/xlink" width="200" height="200"><path d="M38.6048 326.4l437.6064 217.6c12.8512 6.4 25.7024 12.8 38.6048 12.8 12.8512 0 25.7536-6.4 38.6048-12.8l437.5552-217.6c19.3536-12.8 32.2048-32 32.2048-51.2s-12.8512-38.4-32.2048-51.2L553.472 6.4C540.5696 0 527.6672 0 514.816 0c-12.9024 0-25.7536 6.4-38.6048 12.8l-444.0576 204.8C12.8512 230.4 0 249.6 0 275.2c0 19.2 19.3024 38.4 38.6048 51.2z m920.2176 115.2c-25.7536 0-38.6048 12.8-38.6048 12.8l-399.0016 192-398.9504-192c-19.3024-6.4-32.1536-6.4-45.056-6.4C25.7536 441.6 6.4512 473.6 6.4512 512c0 19.2 12.8512 38.4 32.1536 51.2l437.6064 217.6c12.8512 6.4 25.7024 12.8 38.6048 12.8 12.8512 0 25.7536-6.4 38.6048-12.8l437.5552-211.2c19.3536-12.8 32.2048-32 32.2048-57.6 6.4512-38.4-25.7536-70.4-64.3584-70.4z m0 230.4c-25.7536 0-38.6048 12.8-38.6048 12.8l-399.0016 192-398.9504-192c-12.8512-6.4-25.7536-6.4-38.6048-6.4C32.1536 672 12.8 704 12.8 742.4c0 19.2 12.9024 38.4 32.2048 51.2l431.104 217.6c12.9024 6.4 25.7536 12.8 38.656 12.8 12.8512 0 25.7536-6.4 38.6048-12.8l437.5552-211.2c19.3536-12.8 32.2048-32 32.2048-57.6 6.4512-38.4-25.7536-70.4-64.3584-70.4z" fill="#3e3e3f" p-id="33698"></path></svg>